<svg class="gsuiWaveform" preserveAspectRatio="none" viewBox="0 0 528 144"><polygon points="0 71.809 1 22.843 2 25.891 3 33.339 4 25.926 5 19.499 6 26.859 7 28.289 8 33.555 9 48.092 10 56.992 11 50.126 12 48.912 13 50.037 14 42.744 15 48.483 16 58.668 17 54.391 18 54.015 19 64.455 20 68.713 21 66.276 22 68.649 23 62.258 24 70.652 25 67.892 26 69.274 27 68.912 28 72.017 29 69.272 30 65.98 31 70.233 32 71.964 33 69.024 34 48.612 35 64.69 36 68.251 37 65.326 38 64.808 39 65.528 40 64.826 41 63.74 42 66.351 43 67.75 44 69.071 45 67.343 46 67.518 47 62.76 48 71.04 49 68.624 50 25.018 51 39.279 52 34.021 53 32.418 54 39.955 55 34.496 56 56.777 57 30.821 58 52.42 59 49.009 60 49.451 61 54.134 62 48.895 63 59.541 64 42.914 65 60.565 66 58.372 67 15.965 68 6.684 69 21.049 70 52.461 71 27.359 72 29.138 73 20.43 74 47.5 75 32.776 76 33.867 77 57.602 78 65.156 79 53.746 80 62.829 81 64.874 82 66.776 83 50.588 84 49.442 85 62.836 86 66.886 87 64.38 88 63.497 89 69.137 90 67.028 91 68.48 92 67.551 93 71.458 94 70.279 95 68.047 96 70.3 97 71.781 98 70.347 99 69.04 100 59.714 101 64.614 102 64.739 103 64.289 104 65.695 105 66.21 106 65.596 107 66.294 108 67.782 109 67.983 110 66.424 111 68.233 112 69.914 113 62.387 114 69.035 115 69.688 116 70.864 117 69.951 118 69.96 119 69.912 120 71.89 121 70.949 122 70.878 123 71.092 124 71.88 125 71.244 126 70.403 127 71.109 128 71.7 129 70.976 130 70.915 131 71.259 132 71.42 133 34.489 134 26 135 33.677 136 26.648 137 19.383 138 26.897 139 29.406 140 35.239 141 48.343 142 57.007 143 50.218 144 49.093 145 49.964 146 43.383 147 48.766 148 58.865 149 71.52 150 64.835 151 65.304 152 68.493 153 66.458 154 69.54 155 62.375 156 70.569 157 69.227 158 69.766 159 69.506 160 72.218 161 69.749 162 66.39 163 70.108 164 72.521 165 70.41 166 69.129 167 82.177 168 28.817 169 28.397 170 42.923 171 60.749 172 65.58 173 48.41 174 37.364 175 61.564 176 54.054 177 65.161 178 65.832 179 71.925 180 70.235 181 70.117 182 33.753 183 49.138 184 34.923 185 32.902 186 39.32 187 35.25 188 56.715 189 33.367 190 53.089 191 49.414 192 49.572 193 53.832 194 49.24 195 59.415 196 43.314 197 60.653 198 58.616 199 15.551 200 6.705 201 21.219 202 52.859 203 27.194 204 28.122 205 20.559 206 56.112 207 33.761 208 33.82 209 56.097 210 65.594 211 53.77 212 63.93 213 65.135 214 66.768 215 50.94 216 49.258 217 61.663 218 66.776 219 64.297 220 62.173 221 69.081 222 67.487 223 68.435 224 67.832 225 71.485 226 70.25 227 67.733 228 70.078 229 71.722 230 70.383 231 69.134 232 59.725 233 64.81 234 63.977 235 64.166 236 65.711 237 66.196 238 65.603 239 62.915 240 67.798 241 67.978 242 67.491 243 68.228 244 69.908 245 66.799 246 69.054 247 69.144 248 35.234 249 48.414 250 33.708 251 33.995 252 41.47 253 33.712 254 57.073 255 33.891 256 52.982 257 48.954 258 49.717 259 54.282 260 49.605 261 58.664 262 42.714 263 61.566 264 59.362 265 31.498 266 24.304 267 40.1 268 35.841 269 26.173 270 30.854 271 35.589 272 46.896 273 46.557 274 54.936 275 49.098 276 52.336 277 53.086 278 43.916 279 50.434 280 61.832 281 42.786 282 49.793 283 67.176 284 70.88 285 64.753 286 66.289 287 65.116 288 72.132 289 66.736 290 68.065 291 69.683 292 73.113 293 68.094 294 66.053 295 71.226 296 72.7 297 67.003 298 49.237 299 61.009 300 66.776 301 64.392 302 61.461 303 65.916 304 63.908 305 60.67 306 66.677 307 68.678 308 68.871 309 67.12 310 67.936 311 67.433 312 70.159 313 68.32 314 23.853 315 39.961 316 33.692 317 32.514 318 40.298 319 34.822 320 56.358 321 30.841 322 53.043 323 49.292 324 49.036 325 53.759 326 49.329 327 59.206 328 42.365 329 61.144 330 59.027 331 15.478 332 16.04 333 21.246 334 52.557 335 31.341 336 27.915 337 20.454 338 56.253 339 32.492 340 36.38 341 56.107 342 65.072 343 49.764 344 63.85 345 65.043 346 66.471 347 50.597 348 49.472 349 61.175 350 66.887 351 64.065 352 62.311 353 69.14 354 68.578 355 68.277 356 67.55 357 71.544 358 70.283 359 68.04 360 70.378 361 71.784 362 69.522 363 69.204 364 59.718 365 59.132 366 63.942 367 64.307 368 62.606 369 66.209 370 63.311 371 62.927 372 67.802 373 66.841 374 67.503 375 68.202 376 69.978 377 66.776 378 69.055 379 69.147 380 70.859 381 81.248 382 77.342 383 27.034 384 45.585 385 46.331 386 67.716 387 48.543 388 45.095 389 38.853 390 51.253 391 52.676 392 67.619 393 70.632 394 70.561 395 69.224 396 71.749 397 33.987 398 29.918 399 33.754 400 26.471 401 23.604 402 26.913 403 26.746 404 38.241 405 48.364 406 57.197 407 50.198 408 49.096 409 49.835 410 43.365 411 48.573 412 58.876 413 71.521 414 64.812 415 65.313 416 68.501 417 66.472 418 69.499 419 62.375 420 70.484 421 69.224 422 69.764 423 69.496 424 72.232 425 69.759 426 66.382 427 70.138 428 72.526 429 70.424 430 69.142 431 82.197 432 28.808 433 28.604 434 42.895 435 60.761 436 67.106 437 48.267 438 37.344 439 60.965 440 54.058 441 65.154 442 65.746 443 71.929 444 70.217 445 70.135 446 34.937 447 45.668 448 29.992 449 22.077 450 33.333 451 27.077 452 51.095 453 26.772 454 53.328 455 48.668 456 49.609 457 53.811 458 49.24 459 59.61 460 43.319 461 60.74 462 58.618 463 4.282 464 16.18 465 21.22 466 48.692 467 31.502 468 28.137 469 10.893 470 56.124 471 33.785 472 36.912 473 56.074 474 66.933 475 49.98 476 63.937 477 64.186 478 66.669 479 50.927 480 51.301 481 61.683 482 64.809 483 64.252 484 62.184 485 69.098 486 68.521 487 68.453 488 68.683 489 71.85 490 70.244 491 68.022 492 70.135 493 71.624 494 69.401 495 69.133 496 32.712 497 27.441 498 31.805 499 28.025 500 32.683 501 31.398 502 29.409 503 35.668 504 46.797 505 56.107 506 47.755 507 48.266 508 49.159 509 39.911 510 48.364 511 56.899 512 41.755 513 42.299 514 28.166 515 32.757 516 43.443 517 28.297 518 48.656 519 32.062 520 51.26 521 46.762 522 48.764 523 54.476 524 53.184 525 56.76 526 43.597 527 64.452 527 87.758 526 81.683 525 96.608 524 82.012 523 94.238 522 91.238 521 95.178 520 115.135 519 97.567 518 111.6 517 96.56 516 117.197 515 115.271 514 110.822 513 109.499 512 124.233 511 81.289 510 87.447 509 101.259 508 104.945 507 93.708 506 85.832 505 100.323 504 97.284 503 113.8 502 106.29 501 114.391 500 114.804 499 113.217 498 115.272 497 92.135 496 113.347 495 71.909 494 74.855 493 75.251 492 73.635 491 72.719 490 75.174 489 75.303 488 73.784 487 75.703 486 78.624 485 78.963 484 74.3 483 79.308 482 78.083 481 86.194 480 89.005 479 89.016 478 87.152 477 83.259 476 76.241 475 80.211 474 91.288 473 93.65 472 112.039 471 112.039 470 96.057 469 119.997 468 130.507 467 114.492 466 119.845 465 115.329 464 116.813 463 136.792 462 85.137 461 86.232 460 79.958 459 103.04 458 82.514 457 90.285 456 94.484 455 98.575 454 112.499 453 90.607 452 118.964 451 98.919 450 119.204 449 118.518 448 116.677 447 113.352 446 110.362 445 72.248 444 75.84 443 75.27 442 75.96 441 78.845 440 78.669 439 90.29 438 85.494 437 88.903 436 91.246 435 101.459 434 65.581 433 65.899 432 116.675 431 131.969 430 97.746 429 75.257 428 74.81 427 74.09 426 70.09 425 76.624 424 76.427 423 72.244 422 70.876 421 77.988 420 80.774 419 70.989 418 76.009 417 80.256 416 81.827 415 70.76 414 74.629 413 84.509 412 81.772 411 87.33 410 99.686 409 102.069 408 91.263 407 86.826 406 97.089 405 94.882 404 112.551 403 109.367 402 116.238 401 118.516 400 117.059 399 118.44 398 91.325 397 115.53 396 74.162 395 72.764 394 74.146 393 76.871 392 77.284 391 78.522 390 88.284 389 89.591 388 87.61 387 90.194 386 99.622 385 93.506 384 67.463 383 77.497 382 129.761 381 100.798 380 102.392 379 73.567 378 74.276 377 78.15 376 74.799 375 74.935 374 74.03 373 76.887 372 76.999 371 82.605 370 77.068 369 79.859 368 79.181 367 77.79 366 77.604 365 82.054 364 93.66 363 71.844 362 75.033 361 74.985 360 73.546 359 72.39 358 75.423 357 75.899 356 73.89 355 75.63 354 78.784 353 79.752 352 74.658 351 79.285 350 78.371 349 86.092 348 90.763 347 88.991 346 87.054 345 84.101 344 76.165 343 80.06 342 92.646 341 94.094 340 111.711 339 111.711 338 96.08 337 130.577 336 130.803 335 114.879 334 107.96 333 115.688 332 117.045 331 137.563 330 85.89 329 86.472 328 79.844 327 103.157 326 82.618 325 90.853 324 94.347 323 98.117 322 109.991 321 91.38 320 110.169 319 98.539 318 111.129 317 107.99 316 110.525 315 113.873 314 108.99 313 72.848 312 75.633 311 79.057 310 74.77 309 74.337 308 76.458 307 76.775 306 75.839 305 80.411 304 82.948 303 79.375 302 76.936 301 76.264 300 79.566 299 82.855 298 112.325 297 74.38 296 74.582 295 75.818 294 71.214 293 75.674 292 76.029 291 75.081 290 70.264 289 76.923 288 85.255 287 73.518 286 74.578 285 80.007 284 82.136 283 73.66 282 94.402 281 105.825 280 82.432 279 88.371 278 94.296 277 96.789 276 94.538 275 88.806 274 95.509 273 93.043 272 114.517 271 98.358 270 108.067 269 113.104 268 115.526 267 112.11 266 84.253 265 125.14 264 84.514 263 87.123 262 80.464 261 102.178 260 82.261 259 91.36 258 93.501 257 97.117 256 110.344 255 92.504 254 109.348 253 97.632 252 110.744 251 108.271 250 109.796 249 110.989 248 109.416 247 73.591 246 74.279 245 78.149 244 76.724 243 74.925 242 74.017 241 77.84 240 77.004 239 82.598 238 79.366 237 79.732 236 81.524 235 77.783 234 77.715 233 84.143 232 93.516 231 71.9 230 75.103 229 74.882 228 73.607 227 72.312 226 75.157 225 75.221 224 73.821 223 75.701 222 78.477 221 79.436 220 74.29 219 80.667 218 78.473 217 86.198 216 90.632 215 89.018 214 89.091 213 83.667 212 76.247 211 80.416 210 92.275 209 93.65 208 107.955 207 112.023 206 96.056 205 130.313 204 130.502 203 124.038 202 107.871 201 115.333 200 110.941 199 137.562 198 85.143 197 86.225 196 79.947 195 103.01 194 82.667 193 90.262 192 94.4 191 98.408 190 109.325 189 91.423 188 110.324 187 97.501 186 109.905 185 108.426 184 109.664 183 110.556 182 107.889 181 72.261 180 75.863 179 75.28 178 75.947 177 78.859 176 78.676 175 90.367 174 85.484 173 88.568 172 90.887 171 101.477 170 65.593 169 65.974 168 116.674 167 132.001 166 97.757 165 75.261 164 74.819 163 74.092 162 70.113 161 76.649 160 76.41 159 72.238 158 70.872 157 77.982 156 80.767 155 71.008 154 76.013 153 80.206 152 81.822 151 70.769 150 74.581 149 84.522 148 81.657 147 87.346 146 99.669 145 102.09 144 91.269 143 86.898 142 97.297 141 94.82 140 110.713 139 107.659 138 116.172 137 123.033 136 116.904 135 118.781 134 90.503 133 115.876 132 72.967 131 72.96 130 72.305 129 72.752 128 73.12 127 72.98 126 72.357 125 72.53 124 72.955 123 72.775 122 72.017 121 73.343 120 73.446 119 72.899 118 73.566 117 75.039 116 74.001 115 73.456 114 74.3 113 75.517 112 76.748 111 74.923 110 74.571 109 77.837 108 76.997 107 77.483 106 79.361 105 79.843 104 81.823 103 77.81 102 78.909 101 83.964 100 93.664 99 71.862 98 75.065 97 74.975 96 73.613 95 72.414 94 75.47 93 75.47 92 73.89 91 74.469 90 78.774 89 79.753 88 75.006 87 80.939 86 78.369 85 86.957 84 90.741 83 88.984 82 89.077 81 83.871 80 76.149 79 80.749 78 92.597 77 95.136 76 107.888 75 112.009 74 103.176 73 130.452 72 122.244 71 124.114 70 107.633 69 113.877 68 111.028 67 137.556 66 86.086 65 86.56 64 80.072 63 103.459 62 82.425 61 90.699 60 94.316 59 98.598 58 109.469 57 91.604 56 110.792 55 96.787 54 110.478 53 108.641 52 111.244 51 113.395 50 109.203 49 73.521 48 76.193 47 76.133 46 76.053 45 75.299 44 77.108 43 75.842 42 75.303 41 78.816 40 83.281 39 83.422 38 78.263 37 77.437 36 81.717 35 85.696 34 112.176 33 75.735 32 74.9 31 74.701 30 70.358 29 77.287 28 76.845 27 72.792 26 71.353 25 78.489 24 84.411 23 71.375 22 76.553 21 80.386 20 82.228 19 72.036 18 98.648 17 105.349 16 81.427 15 87.547 14 99.894 13 102.55 12 91.536 11 86.786 10 97.717 9 96.069 8 110.677 7 108.035 6 117.624 5 123.017 4 116.742 3 120.898 2 91.357 1 116.488 0 71.791"/></svg>